<?xml version="1.0" encoding="UTF-8" standalone="no"?>
<!DOCTYPE svg PUBLIC "-//W3C//DTD SVG 1.1//EN"
 "http://www.w3.org/Graphics/SVG/1.1/DTD/svg11.dtd">
<!-- Generated by graphviz version 2.38.0 (20140413.2041)
 -->
<!-- Title: controllers_diagram Pages: 1 -->
<svg width="392pt" height="229pt"
 viewBox="0.00 0.00 391.96 229.00" xmlns="http://www.w3.org/2000/svg" xmlns:xlink="http://www.w3.org/1999/xlink">
<g id="graph0" class="graph" transform="scale(1 1) rotate(0) translate(84.269 113.5)">
<title>controllers_diagram</title>
<polygon fill="none" stroke="none" points="-84.269,115.5 -84.269,-113.5 307.688,-113.5 307.688,115.5 -84.269,115.5"/>
<!-- _diagram_info -->
<g id="node1" class="node"><title>_diagram_info</title>
<text text-anchor="start" x="104.312" y="36.9" font-family="Times,serif" font-size="13.00">Controllers diagram</text>
<text text-anchor="start" x="104.312" y="49.9" font-family="Times,serif" font-size="13.00">Date: Aug 29 2016 &#45; 19:25</text>
<text text-anchor="start" x="104.312" y="62.9" font-family="Times,serif" font-size="13.00">Migration version: 20160829221735</text>
<text text-anchor="start" x="104.312" y="75.9" font-family="Times,serif" font-size="13.00">Generated by RailRoady 1.5.1</text>
<text text-anchor="start" x="104.312" y="88.9" font-family="Times,serif" font-size="13.00">http://railroady.prestonlee.com</text>
</g>
<!-- ApplicationController -->
<g id="node2" class="node"><title>ApplicationController</title>
<path fill="none" stroke="black" d="M108.179,-17C108.179,-17 223.821,-17 223.821,-17 229.821,-17 235.821,-23 235.821,-29 235.821,-29 235.821,-97 235.821,-97 235.821,-103 229.821,-109 223.821,-109 223.821,-109 108.179,-109 108.179,-109 102.179,-109 96.1792,-103 96.1792,-97 96.1792,-97 96.1792,-29 96.1792,-29 96.1792,-23 102.179,-17 108.179,-17"/>
<text text-anchor="middle" x="166" y="-93.8" font-family="Times,serif" font-size="14.00">ApplicationController</text>
<polyline fill="none" stroke="black" points="96.1792,-87 235.821,-87 "/>
<polyline fill="none" stroke="black" points="96.1792,-63 235.821,-63 "/>
<polyline fill="none" stroke="black" points="96.1792,-39 235.821,-39 "/>
<text text-anchor="start" x="104.179" y="-23.8" font-family="Times,serif" font-size="14.00">_layout</text>
</g>
<!-- CompaniesController -->
<g id="node3" class="node"><title>CompaniesController</title>
<path fill="none" stroke="black" d="M-68.269,111C-68.269,111 44.269,111 44.269,111 50.269,111 56.269,105 56.269,99 56.269,99 56.269,-79 56.269,-79 56.269,-85 50.269,-91 44.269,-91 44.269,-91 -68.269,-91 -68.269,-91 -74.269,-91 -80.269,-85 -80.269,-79 -80.269,-79 -80.269,99 -80.269,99 -80.269,105 -74.269,111 -68.269,111"/>
<text text-anchor="middle" x="-12" y="-75.8" font-family="Times,serif" font-size="14.00">CompaniesController</text>
<polyline fill="none" stroke="black" points="-80.269,-69 56.269,-69 "/>
<text text-anchor="start" x="-72.269" y="-53.8" font-family="Times,serif" font-size="14.00">index</text>
<text text-anchor="start" x="-72.269" y="-39.8" font-family="Times,serif" font-size="14.00">destroy</text>
<text text-anchor="start" x="-72.269" y="-25.8" font-family="Times,serif" font-size="14.00">edit</text>
<text text-anchor="start" x="-72.269" y="-11.8" font-family="Times,serif" font-size="14.00">create</text>
<text text-anchor="start" x="-72.269" y="2.2" font-family="Times,serif" font-size="14.00">new</text>
<text text-anchor="start" x="-72.269" y="16.2" font-family="Times,serif" font-size="14.00">show</text>
<text text-anchor="start" x="-72.269" y="30.2" font-family="Times,serif" font-size="14.00">update</text>
<polyline fill="none" stroke="black" points="-80.269,37 56.269,37 "/>
<polyline fill="none" stroke="black" points="-80.269,61 56.269,61 "/>
<text text-anchor="start" x="-72.269" y="76.2" font-family="Times,serif" font-size="14.00">_layout</text>
<text text-anchor="start" x="-72.269" y="90.2" font-family="Times,serif" font-size="14.00">company_params</text>
<text text-anchor="start" x="-72.269" y="104.2" font-family="Times,serif" font-size="14.00">set_company</text>
</g>
</g>
</svg>
