<?xml version="1.0" encoding="UTF-8" standalone="no"?>
<!DOCTYPE svg PUBLIC "-//W3C//DTD SVG 1.1//EN"
 "http://www.w3.org/Graphics/SVG/1.1/DTD/svg11.dtd">
<!-- Generated by graphviz version 2.38.0 (20140413.2041)
 -->
<!-- Title: models_diagram Pages: 1 -->
<svg width="394pt" height="153pt"
 viewBox="0.00 0.00 393.69 153.00" xmlns="http://www.w3.org/2000/svg" xmlns:xlink="http://www.w3.org/1999/xlink">
<g id="graph0" class="graph" transform="scale(1 1) rotate(0) translate(4 149)">
<title>models_diagram</title>
<polygon fill="none" stroke="none" points="-4,4 -4,-149 389.688,-149 389.688,4 -4,4"/>
<!-- _diagram_info -->
<g id="node1" class="node"><title>_diagram_info</title>
<text text-anchor="start" x="8" y="-130.6" font-family="Times,serif" font-size="13.00">Models diagram</text>
<text text-anchor="start" x="8" y="-117.6" font-family="Times,serif" font-size="13.00">Date: Aug 29 2016 &#45; 19:25</text>
<text text-anchor="start" x="8" y="-104.6" font-family="Times,serif" font-size="13.00">Migration version: 20160829221735</text>
<text text-anchor="start" x="8" y="-91.6" font-family="Times,serif" font-size="13.00">Generated by RailRoady 1.5.1</text>
<text text-anchor="start" x="8" y="-78.6" font-family="Times,serif" font-size="13.00">http://railroady.prestonlee.com</text>
</g>
<!-- Claim -->
<g id="node2" class="node"><title>Claim</title>
<ellipse fill="none" stroke="black" cx="313.688" cy="-18" rx="31.948" ry="18"/>
<text text-anchor="middle" x="313.688" y="-13.8" font-family="Times,serif" font-size="14.00">Claim</text>
</g>
<!-- Company -->
<g id="node3" class="node"><title>Company</title>
<ellipse fill="none" stroke="black" cx="269.688" cy="-108.5" rx="44.4923" ry="18"/>
<text text-anchor="middle" x="269.688" y="-104.3" font-family="Times,serif" font-size="14.00">Company</text>
</g>
<!-- Company&#45;&gt;Claim -->
<g id="edge1" class="edge"><title>Company&#45;&gt;Claim</title>
<path fill="none" stroke="#896f8e" d="M281.911,-82.9151C287.855,-70.9588 294.995,-56.598 301,-44.5201"/>
<ellipse fill="none" stroke="#896f8e" cx="279.952" cy="-86.8546" rx="4.00002" ry="4.00002"/>
<polygon fill="#896f8e" stroke="#896f8e" points="301.076,-44.3673 309.557,-37.4163 303.302,-39.8901 305.528,-35.4129 305.528,-35.4129 305.528,-35.4129 303.302,-39.8901 301.498,-33.4095 301.076,-44.3673 301.076,-44.3673"/>
</g>
<!-- User -->
<g id="node4" class="node"><title>User</title>
<ellipse fill="none" stroke="black" cx="358.688" cy="-108.5" rx="27" ry="18"/>
<text text-anchor="middle" x="358.688" y="-104.3" font-family="Times,serif" font-size="14.00">User</text>
</g>
<!-- User&#45;&gt;Claim -->
<g id="edge2" class="edge"><title>User&#45;&gt;Claim</title>
<path fill="none" stroke="#38d02f" d="M346.807,-84.134C340.593,-71.9145 332.978,-56.9379 326.617,-44.4281"/>
<ellipse fill="none" stroke="#38d02f" cx="348.621" cy="-87.7022" rx="4.00002" ry="4.00002"/>
<polygon fill="#38d02f" stroke="#38d02f" points="326.574,-44.3429 326.053,-33.3894 324.308,-39.886 322.042,-35.4291 322.042,-35.4291 322.042,-35.4291 324.308,-39.886 318.03,-37.4687 326.574,-44.3429 326.574,-44.3429"/>
</g>
</g>
</svg>
