<?xml version="1.0" encoding="UTF-8" standalone="no"?>
<!DOCTYPE svg PUBLIC "-//W3C//DTD SVG 1.1//EN"
 "http://www.w3.org/Graphics/SVG/1.1/DTD/svg11.dtd">
<!-- Generated by graphviz version 2.38.0 (20140413.2041)
 -->
<!-- Title: models_diagram Pages: 1 -->
<svg width="818pt" height="372pt"
 viewBox="0.00 0.00 818.32 372.00" xmlns="http://www.w3.org/2000/svg" xmlns:xlink="http://www.w3.org/1999/xlink">
<g id="graph0" class="graph" transform="scale(1 1) rotate(0) translate(4 368)">
<title>models_diagram</title>
<polygon fill="none" stroke="none" points="-4,4 -4,-368 814.323,-368 814.323,4 -4,4"/>
<!-- _diagram_info -->
<g id="node1" class="node"><title>_diagram_info</title>
<text text-anchor="start" x="8" y="-279.6" font-family="Times,serif" font-size="13.00">Models diagram</text>
<text text-anchor="start" x="8" y="-266.6" font-family="Times,serif" font-size="13.00">Date: Aug 29 2016 &#45; 19:25</text>
<text text-anchor="start" x="8" y="-253.6" font-family="Times,serif" font-size="13.00">Migration version: 20160829221735</text>
<text text-anchor="start" x="8" y="-240.6" font-family="Times,serif" font-size="13.00">Generated by RailRoady 1.5.1</text>
<text text-anchor="start" x="8" y="-227.6" font-family="Times,serif" font-size="13.00">http://railroady.prestonlee.com</text>
</g>
<!-- Claim -->
<g id="node2" class="node"><title>Claim</title>
<path fill="none" stroke="black" d="M387.825,-0.5C387.825,-0.5 611.55,-0.5 611.55,-0.5 617.55,-0.5 623.55,-6.5 623.55,-12.5 623.55,-12.5 623.55,-102.5 623.55,-102.5 623.55,-108.5 617.55,-114.5 611.55,-114.5 611.55,-114.5 387.825,-114.5 387.825,-114.5 381.825,-114.5 375.825,-108.5 375.825,-102.5 375.825,-102.5 375.825,-12.5 375.825,-12.5 375.825,-6.5 381.825,-0.5 387.825,-0.5"/>
<text text-anchor="middle" x="499.688" y="-99.3" font-family="Times,serif" font-size="14.00">Claim</text>
<polyline fill="none" stroke="black" points="375.825,-92.5 623.55,-92.5 "/>
<text text-anchor="start" x="383.825" y="-77.3" font-family="Times,serif" font-size="14.00">id :integer</text>
<text text-anchor="start" x="383.825" y="-63.3" font-family="Times,serif" font-size="14.00">comment :character varying</text>
<text text-anchor="start" x="383.825" y="-49.3" font-family="Times,serif" font-size="14.00">user_id :integer</text>
<text text-anchor="start" x="383.825" y="-35.3" font-family="Times,serif" font-size="14.00">company_id :integer</text>
<text text-anchor="start" x="383.825" y="-21.3" font-family="Times,serif" font-size="14.00">created_at :timestamp without time zone</text>
<text text-anchor="start" x="383.825" y="-7.3" font-family="Times,serif" font-size="14.00">updated_at :timestamp without time zone</text>
</g>
<!-- Company -->
<g id="node3" class="node"><title>Company</title>
<path fill="none" stroke="black" d="M237.825,-214.5C237.825,-214.5 461.55,-214.5 461.55,-214.5 467.55,-214.5 473.55,-220.5 473.55,-226.5 473.55,-226.5 473.55,-288.5 473.55,-288.5 473.55,-294.5 467.55,-300.5 461.55,-300.5 461.55,-300.5 237.825,-300.5 237.825,-300.5 231.825,-300.5 225.825,-294.5 225.825,-288.5 225.825,-288.5 225.825,-226.5 225.825,-226.5 225.825,-220.5 231.825,-214.5 237.825,-214.5"/>
<text text-anchor="middle" x="349.688" y="-285.3" font-family="Times,serif" font-size="14.00">Company</text>
<polyline fill="none" stroke="black" points="225.825,-278.5 473.55,-278.5 "/>
<text text-anchor="start" x="233.825" y="-263.3" font-family="Times,serif" font-size="14.00">id :integer</text>
<text text-anchor="start" x="233.825" y="-249.3" font-family="Times,serif" font-size="14.00">name :character varying</text>
<text text-anchor="start" x="233.825" y="-235.3" font-family="Times,serif" font-size="14.00">created_at :timestamp without time zone</text>
<text text-anchor="start" x="233.825" y="-221.3" font-family="Times,serif" font-size="14.00">updated_at :timestamp without time zone</text>
</g>
<!-- Company&#45;&gt;Claim -->
<g id="edge1" class="edge"><title>Company&#45;&gt;Claim</title>
<path fill="none" stroke="#0b6477" d="M386.871,-207.419C406.228,-181.867 430.138,-150.306 450.957,-122.825"/>
<ellipse fill="none" stroke="#0b6477" cx="384.282" cy="-210.836" rx="4.00002" ry="4.00002"/>
<polygon fill="#0b6477" stroke="#0b6477" points="450.986,-122.787 460.611,-117.533 454.005,-118.801 457.024,-114.816 457.024,-114.816 457.024,-114.816 454.005,-118.801 453.437,-112.098 450.986,-122.787 450.986,-122.787"/>
</g>
<!-- User -->
<g id="node4" class="node"><title>User</title>
<path fill="none" stroke="black" d="M503.053,-151.5C503.053,-151.5 798.323,-151.5 798.323,-151.5 804.323,-151.5 810.323,-157.5 810.323,-163.5 810.323,-163.5 810.323,-351.5 810.323,-351.5 810.323,-357.5 804.323,-363.5 798.323,-363.5 798.323,-363.5 503.053,-363.5 503.053,-363.5 497.053,-363.5 491.053,-357.5 491.053,-351.5 491.053,-351.5 491.053,-163.5 491.053,-163.5 491.053,-157.5 497.053,-151.5 503.053,-151.5"/>
<text text-anchor="middle" x="650.688" y="-348.3" font-family="Times,serif" font-size="14.00">User</text>
<polyline fill="none" stroke="black" points="491.053,-341.5 810.323,-341.5 "/>
<text text-anchor="start" x="499.053" y="-326.3" font-family="Times,serif" font-size="14.00">updated_at :timestamp without time zone</text>
<text text-anchor="start" x="499.053" y="-312.3" font-family="Times,serif" font-size="14.00">email :character varying</text>
<text text-anchor="start" x="499.053" y="-298.3" font-family="Times,serif" font-size="14.00">encrypted_password :character varying</text>
<text text-anchor="start" x="499.053" y="-284.3" font-family="Times,serif" font-size="14.00">reset_password_token :character varying</text>
<text text-anchor="start" x="499.053" y="-270.3" font-family="Times,serif" font-size="14.00">reset_password_sent_at :timestamp without time zone</text>
<text text-anchor="start" x="499.053" y="-256.3" font-family="Times,serif" font-size="14.00">remember_created_at :timestamp without time zone</text>
<text text-anchor="start" x="499.053" y="-242.3" font-family="Times,serif" font-size="14.00">sign_in_count :integer</text>
<text text-anchor="start" x="499.053" y="-228.3" font-family="Times,serif" font-size="14.00">current_sign_in_at :timestamp without time zone</text>
<text text-anchor="start" x="499.053" y="-214.3" font-family="Times,serif" font-size="14.00">last_sign_in_at :timestamp without time zone</text>
<text text-anchor="start" x="499.053" y="-200.3" font-family="Times,serif" font-size="14.00">current_sign_in_ip :inet</text>
<text text-anchor="start" x="499.053" y="-186.3" font-family="Times,serif" font-size="14.00">last_sign_in_ip :inet</text>
<text text-anchor="start" x="499.053" y="-172.3" font-family="Times,serif" font-size="14.00">created_at :timestamp without time zone</text>
<text text-anchor="start" x="499.053" y="-158.3" font-family="Times,serif" font-size="14.00">id :integer</text>
</g>
<!-- User&#45;&gt;Claim -->
<g id="edge2" class="edge"><title>User&#45;&gt;Claim</title>
<path fill="none" stroke="#1a012b" d="M565.571,-144.89C559.847,-137.385 554.198,-129.977 548.759,-122.845"/>
<ellipse fill="none" stroke="#1a012b" cx="568.12" cy="-148.232" rx="4.00002" ry="4.00002"/>
<polygon fill="#1a012b" stroke="#1a012b" points="548.542,-122.56 546.056,-111.88 545.51,-118.584 542.478,-114.609 542.478,-114.609 542.478,-114.609 545.51,-118.584 538.899,-117.337 548.542,-122.56 548.542,-122.56"/>
</g>
</g>
</svg>
